<svg width="142" height="29" viewBox="0 0 142 29" fill="none" xmlns="http://www.w3.org/2000/svg">
<path d="M11.528 2.44003C13.088 2.44003 14.468 2.66803 15.668 3.12403C16.892 3.58003 18.044 4.26403 19.124 5.17603L16.316 8.52403C15.572 7.94803 14.84 7.51603 14.12 7.22803C13.4 6.94003 12.632 6.79603 11.816 6.79603C10.136 6.79603 8.80399 7.50403 7.81999 8.92003C6.85999 10.336 6.37999 12.52 6.37999 15.472C6.37999 18.376 6.85999 20.536 7.81999 21.952C8.80399 23.344 10.16 24.04 11.888 24.04C12.8 24.04 13.628 23.872 14.372 23.536C15.116 23.176 15.92 22.672 16.784 22.024L19.412 25.408C18.476 26.344 17.336 27.112 15.992 27.712C14.672 28.312 13.208 28.612 11.6 28.612C9.29599 28.612 7.29199 28.108 5.58799 27.1C3.88399 26.092 2.55199 24.604 1.59199 22.636C0.655988 20.644 0.187988 18.256 0.187988 15.472C0.187988 12.76 0.667988 10.42 1.62799 8.45203C2.61199 6.48403 3.95599 4.99603 5.65999 3.98803C7.38799 2.95603 9.34399 2.44003 11.528 2.44003Z" fill="#686868"/>
<path d="M36.7795 22.456C36.7795 23.176 36.8755 23.704 37.0675 24.04C37.2835 24.376 37.6195 24.628 38.0755 24.796L36.8875 28.504C35.7115 28.408 34.7515 28.156 34.0075 27.748C33.2635 27.316 32.6875 26.644 32.2795 25.732C31.0315 27.652 29.1115 28.612 26.5195 28.612C24.6235 28.612 23.1115 28.06 21.9835 26.956C20.8555 25.852 20.2915 24.412 20.2915 22.636C20.2915 20.548 21.0595 18.952 22.5955 17.848C24.1315 16.744 26.3515 16.192 29.2555 16.192H31.1995V15.364C31.1995 14.236 30.9595 13.468 30.4795 13.06C29.9995 12.628 29.1595 12.412 27.9595 12.412C27.3355 12.412 26.5795 12.508 25.6915 12.7C24.8035 12.868 23.8915 13.108 22.9555 13.42L21.6595 9.67603C22.8595 9.22003 24.0835 8.87203 25.3315 8.63203C26.6035 8.39203 27.7795 8.27203 28.8595 8.27203C31.5955 8.27203 33.5995 8.83603 34.8715 9.96403C36.1435 11.092 36.7795 12.784 36.7795 15.04V22.456ZM28.1755 24.544C29.4715 24.544 30.4795 23.932 31.1995 22.708V19.324H29.7955C28.4995 19.324 27.5275 19.552 26.8795 20.008C26.2555 20.464 25.9435 21.172 25.9435 22.132C25.9435 22.9 26.1355 23.5 26.5195 23.932C26.9275 24.34 27.4795 24.544 28.1755 24.544Z" fill="#686868"/>
<path d="M51.6781 8.34403C52.3741 8.34403 53.0101 8.42803 53.5861 8.59603L52.6861 14.104C51.9661 13.936 51.3901 13.852 50.9581 13.852C49.8301 13.852 48.9661 14.248 48.3661 15.04C47.7901 15.808 47.3341 16.972 46.9981 18.532V28H41.3101V8.88403H46.2781L46.7461 12.592C47.1781 11.272 47.8261 10.24 48.6901 9.49603C49.5781 8.72803 50.5741 8.34403 51.6781 8.34403Z" fill="#686868"/>
<path d="M72.2113 8.88403L66.1993 28H59.4673L53.3113 8.88403H59.5033L62.8873 23.68L66.4153 8.88403H72.2113Z" fill="#686868"/>
<path d="M88.5998 22.456C88.5998 23.176 88.6958 23.704 88.8878 24.04C89.1038 24.376 89.4398 24.628 89.8958 24.796L88.7078 28.504C87.5318 28.408 86.5718 28.156 85.8278 27.748C85.0838 27.316 84.5078 26.644 84.0998 25.732C82.8518 27.652 80.9318 28.612 78.3398 28.612C76.4438 28.612 74.9318 28.06 73.8038 26.956C72.6758 25.852 72.1118 24.412 72.1118 22.636C72.1118 20.548 72.8798 18.952 74.4158 17.848C75.9518 16.744 78.1718 16.192 81.0758 16.192H83.0198V15.364C83.0198 14.236 82.7798 13.468 82.2998 13.06C81.8198 12.628 80.9798 12.412 79.7798 12.412C79.1558 12.412 78.3998 12.508 77.5118 12.7C76.6238 12.868 75.7118 13.108 74.7758 13.42L73.4798 9.67603C74.6798 9.22003 75.9038 8.87203 77.1518 8.63203C78.4238 8.39203 79.5998 8.27203 80.6798 8.27203C83.4158 8.27203 85.4198 8.83603 86.6918 9.96403C87.9638 11.092 88.5998 12.784 88.5998 15.04V22.456ZM79.9958 24.544C81.2918 24.544 82.2998 23.932 83.0198 22.708V19.324H81.6158C80.3198 19.324 79.3478 19.552 78.6998 20.008C78.0758 20.464 77.7638 21.172 77.7638 22.132C77.7638 22.9 77.9558 23.5 78.3398 23.932C78.7478 24.34 79.2998 24.544 79.9958 24.544Z" fill="#686868"/>
<path d="M97.8549 28.612C96.1989 28.612 94.9029 28.144 93.9669 27.208C93.0549 26.248 92.5989 24.892 92.5989 23.14V1.28803L98.2869 0.676025V22.924C98.2869 23.716 98.6109 24.112 99.2589 24.112C99.5949 24.112 99.9069 24.052 100.195 23.932L101.311 27.964C100.279 28.396 99.1269 28.612 97.8549 28.612Z" fill="#686868"/>
<path d="M114.662 8.27203C116.318 8.27203 117.614 8.77603 118.55 9.78403C119.486 10.792 119.954 12.208 119.954 14.032V28H114.266V15.004C114.266 14.044 114.11 13.384 113.798 13.024C113.486 12.64 113.042 12.448 112.466 12.448C111.314 12.448 110.21 13.264 109.154 14.896V28H103.466V1.28803L109.154 0.712027V10.936C109.946 10.048 110.786 9.38803 111.674 8.95603C112.562 8.50003 113.558 8.27203 114.662 8.27203Z" fill="#686868"/>
<path d="M132.524 8.27203C135.452 8.27203 137.744 9.17203 139.4 10.972C141.056 12.748 141.884 15.244 141.884 18.46C141.884 20.5 141.5 22.288 140.732 23.824C139.988 25.336 138.908 26.512 137.492 27.352C136.1 28.192 134.444 28.612 132.524 28.612C129.62 28.612 127.328 27.724 125.648 25.948C123.992 24.148 123.164 21.64 123.164 18.424C123.164 16.384 123.536 14.608 124.28 13.096C125.048 11.56 126.128 10.372 127.52 9.53203C128.936 8.69203 130.604 8.27203 132.524 8.27203ZM132.524 12.448C131.372 12.448 130.508 12.94 129.932 13.924C129.356 14.884 129.068 16.384 129.068 18.424C129.068 20.512 129.344 22.036 129.896 22.996C130.472 23.956 131.348 24.436 132.524 24.436C133.676 24.436 134.54 23.956 135.116 22.996C135.692 22.012 135.98 20.5 135.98 18.46C135.98 16.372 135.692 14.848 135.116 13.888C134.564 12.928 133.7 12.448 132.524 12.448Z" fill="#686868"/>
</svg>
