<svg width="24" height="24" viewBox="0 0 24 24" fill="none" xmlns="http://www.w3.org/2000/svg">
<path d="M17.4747 4.5C15.5275 4.5 13.4306 4.9 11.9827 6C10.5348 4.9 8.43779 4.5 6.4906 4.5C5.04269 4.5 3.50491 4.72 2.21677 5.29C1.48783 5.62 0.998535 6.33 0.998535 7.14V18.42C0.998535 19.72 2.21677 20.68 3.47496 20.36C4.45354 20.11 5.49204 20 6.4906 20C8.04835 20 9.70595 20.26 11.044 20.92C11.6432 21.22 12.3222 21.22 12.9113 20.92C14.2494 20.25 15.907 20 17.4647 20C18.4633 20 19.5018 20.11 20.4804 20.36C21.7386 20.69 22.9568 19.73 22.9568 18.42V7.14C22.9568 6.33 22.4675 5.62 21.7386 5.29C20.4604 4.72 18.9226 4.5 17.4747 4.5ZM20.9697 17.23C20.9697 17.86 20.3905 18.32 19.7714 18.21C19.0225 18.07 18.2436 18.01 17.4747 18.01C15.7772 18.01 13.3307 18.66 11.9827 19.51V8C13.3307 7.15 15.7772 6.5 17.4747 6.5C18.3934 6.5 19.3021 6.59 20.1708 6.78C20.6302 6.88 20.9697 7.29 20.9697 7.76V17.23Z" fill="url(#paint0_linear_14_297)"/>
<path d="M13.9598 11.01C13.6403 11.01 13.3507 10.81 13.2508 10.49C13.121 10.1 13.3407 9.66998 13.7302 9.54998C15.2679 9.04998 17.2551 8.88998 19.0824 9.09998C19.4918 9.14998 19.7914 9.51998 19.7415 9.92998C19.6915 10.34 19.3221 10.64 18.9127 10.59C17.295 10.4 15.5276 10.55 14.1895 10.98C14.1096 10.99 14.0297 11.01 13.9598 11.01Z" fill="url(#paint1_linear_14_297)"/>
<path d="M13.9598 13.67C13.6403 13.67 13.3507 13.47 13.2508 13.15C13.121 12.76 13.3407 12.33 13.7302 12.21C15.2579 11.71 17.2551 11.55 19.0824 11.76C19.4918 11.81 19.7914 12.18 19.7415 12.59C19.6915 13 19.3221 13.3 18.9127 13.25C17.295 13.06 15.5276 13.21 14.1895 13.64C14.1096 13.66 14.0297 13.67 13.9598 13.67Z" fill="url(#paint2_linear_14_297)"/>
<path d="M13.9598 16.33C13.6403 16.33 13.3507 16.13 13.2508 15.81C13.121 15.42 13.3407 14.99 13.7302 14.87C15.2579 14.37 17.2551 14.21 19.0824 14.42C19.4918 14.47 19.7914 14.84 19.7415 15.25C19.6915 15.66 19.3221 15.95 18.9127 15.91C17.295 15.72 15.5276 15.87 14.1895 16.3C14.1096 16.32 14.0297 16.33 13.9598 16.33Z" fill="url(#paint3_linear_14_297)"/>
<defs>
<linearGradient id="paint0_linear_14_297" x1="11.9777" y1="4.5" x2="11.9777" y2="21.145" gradientUnits="userSpaceOnUse">
<stop stop-color="#B6F829"/>
<stop offset="1" stop-color="#67DD0A"/>
<stop offset="1" stop-color="#67DD0A"/>
</linearGradient>
<linearGradient id="paint1_linear_14_297" x1="16.4802" y1="9.00989" x2="16.4802" y2="11.01" gradientUnits="userSpaceOnUse">
<stop stop-color="#B6F829"/>
<stop offset="1" stop-color="#67DD0A"/>
<stop offset="1" stop-color="#67DD0A"/>
</linearGradient>
<linearGradient id="paint2_linear_14_297" x1="16.4802" y1="11.6699" x2="16.4802" y2="13.67" gradientUnits="userSpaceOnUse">
<stop stop-color="#B6F829"/>
<stop offset="1" stop-color="#67DD0A"/>
<stop offset="1" stop-color="#67DD0A"/>
</linearGradient>
<linearGradient id="paint3_linear_14_297" x1="16.4802" y1="14.33" x2="16.4802" y2="16.33" gradientUnits="userSpaceOnUse">
<stop stop-color="#B6F829"/>
<stop offset="1" stop-color="#67DD0A"/>
<stop offset="1" stop-color="#67DD0A"/>
</linearGradient>
</defs>
</svg>
