<svg width="152" height="29" viewBox="0 0 152 29" fill="none" xmlns="http://www.w3.org/2000/svg">
<path d="M0.339996 28V3.05203H15.208L14.596 7.26403H6.244V13.888H13.516V18.1H6.244V28H0.339996Z" fill="black"/>
<path d="M33.1773 18.064C33.1773 18.856 33.1413 19.54 33.0693 20.116H21.2253C21.4173 21.724 21.8733 22.852 22.5933 23.5C23.3133 24.148 24.3093 24.472 25.5813 24.472C26.3493 24.472 27.0933 24.34 27.8133 24.076C28.5333 23.788 29.3133 23.356 30.1533 22.78L32.4933 25.948C30.2613 27.724 27.7773 28.612 25.0413 28.612C21.9453 28.612 19.5693 27.7 17.9133 25.876C16.2573 24.052 15.4293 21.604 15.4293 18.532C15.4293 16.588 15.7773 14.848 16.4733 13.312C17.1693 11.752 18.1893 10.528 19.5333 9.64003C20.8773 8.72803 22.4853 8.27203 24.3573 8.27203C27.1173 8.27203 29.2773 9.13603 30.8373 10.864C32.3973 12.592 33.1773 14.992 33.1773 18.064ZM27.5973 16.444C27.5493 13.516 26.5173 12.052 24.5013 12.052C23.5173 12.052 22.7493 12.412 22.1973 13.132C21.6693 13.852 21.3453 15.04 21.2253 16.696H27.5973V16.444Z" fill="black"/>
<path d="M46.7406 8.34403C47.4366 8.34403 48.0726 8.42803 48.6486 8.59603L47.7486 14.104C47.0286 13.936 46.4526 13.852 46.0206 13.852C44.8926 13.852 44.0286 14.248 43.4286 15.04C42.8526 15.808 42.3966 16.972 42.0606 18.532V28H36.3726V8.88403H41.3406L41.8086 12.592C42.2406 11.272 42.8886 10.24 43.7526 9.49603C44.6406 8.72803 45.6366 8.34403 46.7406 8.34403Z" fill="black"/>
<path d="M62.0178 8.27203C63.6738 8.27203 64.9698 8.77603 65.9058 9.78403C66.8418 10.792 67.3098 12.208 67.3098 14.032V28H61.6218V15.004C61.6218 14.044 61.4658 13.384 61.1538 13.024C60.8658 12.64 60.4218 12.448 59.8218 12.448C58.6698 12.448 57.5658 13.276 56.5098 14.932V28H50.8218V8.88403H55.7898L56.1858 11.152C57.0018 10.192 57.8778 9.47203 58.8138 8.99203C59.7738 8.51203 60.8418 8.27203 62.0178 8.27203Z" fill="black"/>
<path d="M86.7912 22.456C86.7912 23.176 86.8872 23.704 87.0792 24.04C87.2952 24.376 87.6312 24.628 88.0872 24.796L86.8992 28.504C85.7232 28.408 84.7632 28.156 84.0192 27.748C83.2752 27.316 82.6992 26.644 82.2912 25.732C81.0432 27.652 79.1232 28.612 76.5312 28.612C74.6352 28.612 73.1232 28.06 71.9952 26.956C70.8672 25.852 70.3032 24.412 70.3032 22.636C70.3032 20.548 71.0712 18.952 72.6072 17.848C74.1432 16.744 76.3632 16.192 79.2672 16.192H81.2112V15.364C81.2112 14.236 80.9712 13.468 80.4912 13.06C80.0112 12.628 79.1712 12.412 77.9712 12.412C77.3472 12.412 76.5912 12.508 75.7032 12.7C74.8152 12.868 73.9032 13.108 72.9672 13.42L71.6712 9.67603C72.8712 9.22003 74.0952 8.87203 75.3432 8.63203C76.6152 8.39203 77.7912 8.27203 78.8712 8.27203C81.6072 8.27203 83.6112 8.83603 84.8832 9.96403C86.1552 11.092 86.7912 12.784 86.7912 15.04V22.456ZM78.1872 24.544C79.4832 24.544 80.4912 23.932 81.2112 22.708V19.324H79.8072C78.5112 19.324 77.5392 19.552 76.8912 20.008C76.2672 20.464 75.9552 21.172 75.9552 22.132C75.9552 22.9 76.1472 23.5 76.5312 23.932C76.9392 24.34 77.4912 24.544 78.1872 24.544Z" fill="black"/>
<path d="M102.518 8.27203C104.174 8.27203 105.47 8.77603 106.406 9.78403C107.342 10.792 107.81 12.208 107.81 14.032V28H102.122V15.004C102.122 14.044 101.966 13.384 101.654 13.024C101.366 12.64 100.922 12.448 100.322 12.448C99.1698 12.448 98.0658 13.276 97.0098 14.932V28H91.3218V8.88403H96.2898L96.6858 11.152C97.5018 10.192 98.3778 9.47203 99.3138 8.99203C100.274 8.51203 101.342 8.27203 102.518 8.27203Z" fill="black"/>
<path d="M129.235 1.28803V28H124.195L123.907 25.768C122.563 27.664 120.751 28.612 118.471 28.612C116.095 28.612 114.283 27.7 113.035 25.876C111.811 24.052 111.199 21.556 111.199 18.388C111.199 16.444 111.523 14.704 112.171 13.168C112.819 11.632 113.731 10.432 114.907 9.56803C116.107 8.70403 117.475 8.27203 119.011 8.27203C120.835 8.27203 122.347 8.87203 123.547 10.072V0.676025L129.235 1.28803ZM120.235 24.436C121.555 24.436 122.659 23.716 123.547 22.276V14.032C123.091 13.48 122.623 13.072 122.143 12.808C121.687 12.544 121.159 12.412 120.559 12.412C119.503 12.412 118.663 12.904 118.039 13.888C117.415 14.872 117.103 16.384 117.103 18.424C117.103 20.656 117.367 22.216 117.895 23.104C118.447 23.992 119.227 24.436 120.235 24.436Z" fill="black"/>
<path d="M141.965 8.27203C144.893 8.27203 147.185 9.17203 148.841 10.972C150.497 12.748 151.325 15.244 151.325 18.46C151.325 20.5 150.941 22.288 150.173 23.824C149.429 25.336 148.349 26.512 146.933 27.352C145.541 28.192 143.885 28.612 141.965 28.612C139.061 28.612 136.769 27.724 135.089 25.948C133.433 24.148 132.605 21.64 132.605 18.424C132.605 16.384 132.977 14.608 133.721 13.096C134.489 11.56 135.569 10.372 136.961 9.53203C138.377 8.69203 140.045 8.27203 141.965 8.27203ZM141.965 12.448C140.813 12.448 139.949 12.94 139.373 13.924C138.797 14.884 138.509 16.384 138.509 18.424C138.509 20.512 138.785 22.036 139.337 22.996C139.913 23.956 140.789 24.436 141.965 24.436C143.117 24.436 143.981 23.956 144.557 22.996C145.133 22.012 145.421 20.5 145.421 18.46C145.421 16.372 145.133 14.848 144.557 13.888C144.005 12.928 143.141 12.448 141.965 12.448Z" fill="black"/>
</svg>
